<mxfile host="Electron" modified="2023-12-09T06:59:10.750Z" agent="Mozilla/5.0 (Windows NT 10.0; Win64; x64) AppleWebKit/537.36 (KHTML, like Gecko) draw.io/22.1.2 Chrome/114.0.5735.289 Electron/25.9.4 Safari/537.36" etag="tkFXvcanHidF130BQcCA" version="22.1.2" type="device">
  <diagram name="第 1 页" id="CfQgzGkemiLvTpW6770e">
    <mxGraphModel dx="1650" dy="1127" grid="1" gridSize="10" guides="1" tooltips="1" connect="1" arrows="1" fold="1" page="0" pageScale="1" pageWidth="827" pageHeight="1169" math="1" shadow="0">
      <root>
        <mxCell id="0" />
        <mxCell id="1" parent="0" />
        <mxCell id="uZZuBNZjG8sVTzccnMU_-1" value="" style="sketch=0;outlineConnect=0;fontColor=#232F3E;gradientColor=none;fillColor=#232F3D;strokeColor=none;dashed=0;verticalLabelPosition=bottom;verticalAlign=top;align=center;html=1;fontSize=12;fontStyle=0;aspect=fixed;pointerEvents=1;shape=mxgraph.aws4.user;" vertex="1" parent="1">
          <mxGeometry width="50" height="50" as="geometry" />
        </mxCell>
        <mxCell id="uZZuBNZjG8sVTzccnMU_-3" value="" style="sketch=0;outlineConnect=0;fontColor=#232F3E;gradientColor=none;fillColor=#232F3D;strokeColor=none;dashed=0;verticalLabelPosition=bottom;verticalAlign=top;align=center;html=1;fontSize=12;fontStyle=0;aspect=fixed;pointerEvents=1;shape=mxgraph.aws4.user;" vertex="1" parent="1">
          <mxGeometry y="70" width="50" height="50" as="geometry" />
        </mxCell>
        <mxCell id="uZZuBNZjG8sVTzccnMU_-4" value="\(\cdots\)" style="text;html=1;strokeColor=none;fillColor=none;align=center;verticalAlign=middle;whiteSpace=wrap;rounded=0;direction=east;horizontal=0;fontSize=16;" vertex="1" parent="1">
          <mxGeometry x="10" y="130" width="30" height="50" as="geometry" />
        </mxCell>
        <mxCell id="uZZuBNZjG8sVTzccnMU_-5" value="" style="sketch=0;outlineConnect=0;fontColor=#232F3E;gradientColor=none;fillColor=#232F3D;strokeColor=none;dashed=0;verticalLabelPosition=bottom;verticalAlign=top;align=center;html=1;fontSize=12;fontStyle=0;aspect=fixed;pointerEvents=1;shape=mxgraph.aws4.user;" vertex="1" parent="1">
          <mxGeometry y="190" width="50" height="50" as="geometry" />
        </mxCell>
        <mxCell id="uZZuBNZjG8sVTzccnMU_-6" value="User" style="text;html=1;strokeColor=none;fillColor=none;align=center;verticalAlign=middle;whiteSpace=wrap;rounded=0;" vertex="1" parent="1">
          <mxGeometry x="-5" y="240" width="60" height="30" as="geometry" />
        </mxCell>
        <mxCell id="uZZuBNZjG8sVTzccnMU_-7" value="" style="sketch=0;outlineConnect=0;fontColor=#232F3E;gradientColor=none;fillColor=#232F3D;strokeColor=none;dashed=0;verticalLabelPosition=bottom;verticalAlign=top;align=center;html=1;fontSize=12;fontStyle=0;aspect=fixed;pointerEvents=1;shape=mxgraph.aws4.document;" vertex="1" parent="1">
          <mxGeometry x="80" y="11.309999999999999" width="20" height="27.37" as="geometry" />
        </mxCell>
        <mxCell id="uZZuBNZjG8sVTzccnMU_-8" value="" style="sketch=0;outlineConnect=0;fontColor=#232F3E;gradientColor=none;fillColor=#232F3D;strokeColor=none;dashed=0;verticalLabelPosition=bottom;verticalAlign=top;align=center;html=1;fontSize=12;fontStyle=0;aspect=fixed;pointerEvents=1;shape=mxgraph.aws4.document;" vertex="1" parent="1">
          <mxGeometry x="80" y="81.32000000000001" width="20" height="27.37" as="geometry" />
        </mxCell>
        <mxCell id="uZZuBNZjG8sVTzccnMU_-9" value="" style="sketch=0;outlineConnect=0;fontColor=#232F3E;gradientColor=none;fillColor=#232F3D;strokeColor=none;dashed=0;verticalLabelPosition=bottom;verticalAlign=top;align=center;html=1;fontSize=12;fontStyle=0;aspect=fixed;pointerEvents=1;shape=mxgraph.aws4.document;" vertex="1" parent="1">
          <mxGeometry x="80" y="201.31" width="20" height="27.37" as="geometry" />
        </mxCell>
        <mxCell id="uZZuBNZjG8sVTzccnMU_-10" value="\(\cdots\)" style="text;html=1;strokeColor=none;fillColor=none;align=center;verticalAlign=middle;whiteSpace=wrap;rounded=0;" vertex="1" parent="1">
          <mxGeometry x="100" y="11.309999999999999" width="40" height="28.68" as="geometry" />
        </mxCell>
        <mxCell id="uZZuBNZjG8sVTzccnMU_-11" value="\(\cdots\)" style="text;html=1;strokeColor=none;fillColor=none;align=center;verticalAlign=middle;whiteSpace=wrap;rounded=0;" vertex="1" parent="1">
          <mxGeometry x="100" y="81.32000000000001" width="40" height="28.68" as="geometry" />
        </mxCell>
        <mxCell id="uZZuBNZjG8sVTzccnMU_-12" value="\(\cdots\)" style="text;html=1;strokeColor=none;fillColor=none;align=center;verticalAlign=middle;whiteSpace=wrap;rounded=0;" vertex="1" parent="1">
          <mxGeometry x="100" y="201.31" width="40" height="28.68" as="geometry" />
        </mxCell>
        <mxCell id="uZZuBNZjG8sVTzccnMU_-13" value="" style="sketch=0;outlineConnect=0;fontColor=#232F3E;gradientColor=none;fillColor=#232F3D;strokeColor=none;dashed=0;verticalLabelPosition=bottom;verticalAlign=top;align=center;html=1;fontSize=12;fontStyle=0;aspect=fixed;pointerEvents=1;shape=mxgraph.aws4.document;" vertex="1" parent="1">
          <mxGeometry x="140" y="12.62" width="20" height="27.37" as="geometry" />
        </mxCell>
        <mxCell id="uZZuBNZjG8sVTzccnMU_-14" value="" style="sketch=0;outlineConnect=0;fontColor=#232F3E;gradientColor=none;fillColor=#232F3D;strokeColor=none;dashed=0;verticalLabelPosition=bottom;verticalAlign=top;align=center;html=1;fontSize=12;fontStyle=0;aspect=fixed;pointerEvents=1;shape=mxgraph.aws4.document;" vertex="1" parent="1">
          <mxGeometry x="140" y="82.63000000000001" width="20" height="27.37" as="geometry" />
        </mxCell>
        <mxCell id="uZZuBNZjG8sVTzccnMU_-15" value="" style="sketch=0;outlineConnect=0;fontColor=#232F3E;gradientColor=none;fillColor=#232F3D;strokeColor=none;dashed=0;verticalLabelPosition=bottom;verticalAlign=top;align=center;html=1;fontSize=12;fontStyle=0;aspect=fixed;pointerEvents=1;shape=mxgraph.aws4.document;" vertex="1" parent="1">
          <mxGeometry x="140" y="202.62" width="20" height="27.37" as="geometry" />
        </mxCell>
        <mxCell id="uZZuBNZjG8sVTzccnMU_-34" value="" style="edgeStyle=orthogonalEdgeStyle;rounded=0;orthogonalLoop=1;jettySize=auto;html=1;" edge="1" parent="1" source="uZZuBNZjG8sVTzccnMU_-21" target="uZZuBNZjG8sVTzccnMU_-33">
          <mxGeometry relative="1" as="geometry" />
        </mxCell>
        <mxCell id="uZZuBNZjG8sVTzccnMU_-21" value="Job Queue" style="swimlane;whiteSpace=wrap;html=1;" vertex="1" parent="1">
          <mxGeometry x="240" y="82.63" width="180" height="78.68" as="geometry" />
        </mxCell>
        <mxCell id="uZZuBNZjG8sVTzccnMU_-16" value="" style="sketch=0;outlineConnect=0;fontColor=#232F3E;gradientColor=none;fillColor=#232F3D;strokeColor=none;dashed=0;verticalLabelPosition=bottom;verticalAlign=top;align=center;html=1;fontSize=12;fontStyle=0;aspect=fixed;pointerEvents=1;shape=mxgraph.aws4.document;" vertex="1" parent="uZZuBNZjG8sVTzccnMU_-21">
          <mxGeometry x="50" y="38.680000000000014" width="20" height="27.37" as="geometry" />
        </mxCell>
        <mxCell id="uZZuBNZjG8sVTzccnMU_-17" value="\(\cdots\)" style="text;html=1;strokeColor=none;fillColor=none;align=center;verticalAlign=middle;whiteSpace=wrap;rounded=0;" vertex="1" parent="uZZuBNZjG8sVTzccnMU_-21">
          <mxGeometry x="70" y="38.680000000000014" width="40" height="28.68" as="geometry" />
        </mxCell>
        <mxCell id="uZZuBNZjG8sVTzccnMU_-18" value="" style="sketch=0;outlineConnect=0;fontColor=#232F3E;gradientColor=none;fillColor=#232F3D;strokeColor=none;dashed=0;verticalLabelPosition=bottom;verticalAlign=top;align=center;html=1;fontSize=12;fontStyle=0;aspect=fixed;pointerEvents=1;shape=mxgraph.aws4.document;" vertex="1" parent="uZZuBNZjG8sVTzccnMU_-21">
          <mxGeometry x="110" y="39.990000000000016" width="20" height="27.37" as="geometry" />
        </mxCell>
        <mxCell id="uZZuBNZjG8sVTzccnMU_-19" value="" style="sketch=0;outlineConnect=0;fontColor=#232F3E;gradientColor=none;fillColor=#232F3D;strokeColor=none;dashed=0;verticalLabelPosition=bottom;verticalAlign=top;align=center;html=1;fontSize=12;fontStyle=0;aspect=fixed;pointerEvents=1;shape=mxgraph.aws4.document;" vertex="1" parent="uZZuBNZjG8sVTzccnMU_-21">
          <mxGeometry x="20" y="38.680000000000014" width="20" height="27.37" as="geometry" />
        </mxCell>
        <mxCell id="uZZuBNZjG8sVTzccnMU_-20" value="" style="sketch=0;outlineConnect=0;fontColor=#232F3E;gradientColor=none;fillColor=#232F3D;strokeColor=none;dashed=0;verticalLabelPosition=bottom;verticalAlign=top;align=center;html=1;fontSize=12;fontStyle=0;aspect=fixed;pointerEvents=1;shape=mxgraph.aws4.document;" vertex="1" parent="uZZuBNZjG8sVTzccnMU_-21">
          <mxGeometry x="140" y="39.990000000000016" width="20" height="27.37" as="geometry" />
        </mxCell>
        <mxCell id="uZZuBNZjG8sVTzccnMU_-23" value="Cloud" style="points=[[0,0],[0.25,0],[0.5,0],[0.75,0],[1,0],[1,0.25],[1,0.5],[1,0.75],[1,1],[0.75,1],[0.5,1],[0.25,1],[0,1],[0,0.75],[0,0.5],[0,0.25]];outlineConnect=0;gradientColor=none;html=1;whiteSpace=wrap;fontSize=12;fontStyle=0;container=1;pointerEvents=0;collapsible=0;recursiveResize=0;shape=mxgraph.aws4.group;grIcon=mxgraph.aws4.group_aws_cloud;strokeColor=#232F3E;fillColor=none;verticalAlign=top;align=left;spacingLeft=30;fontColor=#232F3E;dashed=0;" vertex="1" parent="1">
          <mxGeometry x="570" y="-23.04" width="80" height="303.04" as="geometry" />
        </mxCell>
        <mxCell id="uZZuBNZjG8sVTzccnMU_-24" value="" style="sketch=0;outlineConnect=0;fontColor=#232F3E;gradientColor=none;fillColor=#232F3D;strokeColor=none;dashed=0;verticalLabelPosition=bottom;verticalAlign=top;align=center;html=1;fontSize=12;fontStyle=0;aspect=fixed;pointerEvents=1;shape=mxgraph.aws4.traditional_server;" vertex="1" parent="uZZuBNZjG8sVTzccnMU_-23">
          <mxGeometry x="25" y="35.97" width="30" height="52" as="geometry" />
        </mxCell>
        <mxCell id="uZZuBNZjG8sVTzccnMU_-25" value="" style="sketch=0;outlineConnect=0;fontColor=#232F3E;gradientColor=none;fillColor=#232F3D;strokeColor=none;dashed=0;verticalLabelPosition=bottom;verticalAlign=top;align=center;html=1;fontSize=12;fontStyle=0;aspect=fixed;pointerEvents=1;shape=mxgraph.aws4.traditional_server;" vertex="1" parent="uZZuBNZjG8sVTzccnMU_-23">
          <mxGeometry x="25" y="110" width="30" height="52" as="geometry" />
        </mxCell>
        <mxCell id="uZZuBNZjG8sVTzccnMU_-27" value="\(\cdots\)" style="text;html=1;strokeColor=none;fillColor=none;align=center;verticalAlign=middle;whiteSpace=wrap;rounded=0;direction=east;horizontal=0;fontSize=16;" vertex="1" parent="uZZuBNZjG8sVTzccnMU_-23">
          <mxGeometry x="25" y="180" width="30" height="50" as="geometry" />
        </mxCell>
        <mxCell id="uZZuBNZjG8sVTzccnMU_-28" value="" style="sketch=0;outlineConnect=0;fontColor=#232F3E;gradientColor=none;fillColor=#232F3D;strokeColor=none;dashed=0;verticalLabelPosition=bottom;verticalAlign=top;align=center;html=1;fontSize=12;fontStyle=0;aspect=fixed;pointerEvents=1;shape=mxgraph.aws4.traditional_server;" vertex="1" parent="uZZuBNZjG8sVTzccnMU_-23">
          <mxGeometry x="25" y="230" width="30" height="52" as="geometry" />
        </mxCell>
        <mxCell id="uZZuBNZjG8sVTzccnMU_-29" value="" style="sketch=0;outlineConnect=0;fontColor=#232F3E;gradientColor=none;fillColor=#232F3D;strokeColor=none;dashed=0;verticalLabelPosition=bottom;verticalAlign=top;align=center;html=1;fontSize=12;fontStyle=0;aspect=fixed;pointerEvents=1;shape=mxgraph.aws4.traditional_server;" vertex="1" parent="uZZuBNZjG8sVTzccnMU_-23">
          <mxGeometry x="25" y="230" width="30" height="52" as="geometry" />
        </mxCell>
        <mxCell id="uZZuBNZjG8sVTzccnMU_-45" value="VM1" style="text;html=1;strokeColor=none;fillColor=none;align=center;verticalAlign=middle;whiteSpace=wrap;rounded=0;" vertex="1" parent="uZZuBNZjG8sVTzccnMU_-23">
          <mxGeometry x="20" y="87.97" width="40" height="20" as="geometry" />
        </mxCell>
        <mxCell id="uZZuBNZjG8sVTzccnMU_-46" value="VM2" style="text;html=1;strokeColor=none;fillColor=none;align=center;verticalAlign=middle;whiteSpace=wrap;rounded=0;" vertex="1" parent="uZZuBNZjG8sVTzccnMU_-23">
          <mxGeometry x="20" y="162" width="40" height="20" as="geometry" />
        </mxCell>
        <mxCell id="uZZuBNZjG8sVTzccnMU_-47" value="VMn" style="text;html=1;strokeColor=none;fillColor=none;align=center;verticalAlign=middle;whiteSpace=wrap;rounded=0;" vertex="1" parent="uZZuBNZjG8sVTzccnMU_-23">
          <mxGeometry x="20" y="282.00000000000006" width="40" height="20" as="geometry" />
        </mxCell>
        <mxCell id="uZZuBNZjG8sVTzccnMU_-30" value="" style="endArrow=classic;html=1;rounded=0;entryX=0;entryY=0;entryDx=0;entryDy=0;" edge="1" parent="1" target="uZZuBNZjG8sVTzccnMU_-21">
          <mxGeometry width="50" height="50" relative="1" as="geometry">
            <mxPoint x="170" y="30" as="sourcePoint" />
            <mxPoint x="370" y="120" as="targetPoint" />
          </mxGeometry>
        </mxCell>
        <mxCell id="uZZuBNZjG8sVTzccnMU_-31" value="" style="endArrow=classic;html=1;rounded=0;entryX=0;entryY=0.5;entryDx=0;entryDy=0;" edge="1" parent="1" target="uZZuBNZjG8sVTzccnMU_-21">
          <mxGeometry width="50" height="50" relative="1" as="geometry">
            <mxPoint x="170" y="100" as="sourcePoint" />
            <mxPoint x="370" y="120" as="targetPoint" />
          </mxGeometry>
        </mxCell>
        <mxCell id="uZZuBNZjG8sVTzccnMU_-32" value="" style="endArrow=classic;html=1;rounded=0;entryX=0;entryY=1;entryDx=0;entryDy=0;" edge="1" parent="1" target="uZZuBNZjG8sVTzccnMU_-21">
          <mxGeometry width="50" height="50" relative="1" as="geometry">
            <mxPoint x="170" y="220" as="sourcePoint" />
            <mxPoint x="370" y="120" as="targetPoint" />
          </mxGeometry>
        </mxCell>
        <mxCell id="uZZuBNZjG8sVTzccnMU_-33" value="Job Scheduler" style="shape=trapezoid;perimeter=trapezoidPerimeter;whiteSpace=wrap;html=1;fixedSize=1;direction=south;flipV=0;flipH=1;size=30;horizontal=0;" vertex="1" parent="1">
          <mxGeometry x="440" y="42.62" width="40" height="158.69" as="geometry" />
        </mxCell>
        <mxCell id="uZZuBNZjG8sVTzccnMU_-41" value="" style="edgeStyle=orthogonalEdgeStyle;rounded=0;orthogonalLoop=1;jettySize=auto;html=1;" edge="1" parent="1" source="uZZuBNZjG8sVTzccnMU_-36" target="uZZuBNZjG8sVTzccnMU_-33">
          <mxGeometry relative="1" as="geometry" />
        </mxCell>
        <mxCell id="uZZuBNZjG8sVTzccnMU_-36" value="Schedule Algorithms" style="swimlane;fontStyle=0;childLayout=stackLayout;horizontal=1;startSize=30;horizontalStack=0;resizeParent=1;resizeParentMax=0;resizeLast=0;collapsible=1;marginBottom=0;whiteSpace=wrap;html=1;" vertex="1" parent="1">
          <mxGeometry x="390" y="220" width="140" height="150" as="geometry" />
        </mxCell>
        <mxCell id="uZZuBNZjG8sVTzccnMU_-37" value="Deep Q-Learning" style="text;strokeColor=none;fillColor=none;align=left;verticalAlign=middle;spacingLeft=4;spacingRight=4;overflow=hidden;points=[[0,0.5],[1,0.5]];portConstraint=eastwest;rotatable=0;whiteSpace=wrap;html=1;" vertex="1" parent="uZZuBNZjG8sVTzccnMU_-36">
          <mxGeometry y="30" width="140" height="30" as="geometry" />
        </mxCell>
        <mxCell id="uZZuBNZjG8sVTzccnMU_-38" value="Random" style="text;strokeColor=none;fillColor=none;align=left;verticalAlign=middle;spacingLeft=4;spacingRight=4;overflow=hidden;points=[[0,0.5],[1,0.5]];portConstraint=eastwest;rotatable=0;whiteSpace=wrap;html=1;" vertex="1" parent="uZZuBNZjG8sVTzccnMU_-36">
          <mxGeometry y="60" width="140" height="30" as="geometry" />
        </mxCell>
        <mxCell id="uZZuBNZjG8sVTzccnMU_-39" value="Round-Robin" style="text;strokeColor=none;fillColor=none;align=left;verticalAlign=middle;spacingLeft=4;spacingRight=4;overflow=hidden;points=[[0,0.5],[1,0.5]];portConstraint=eastwest;rotatable=0;whiteSpace=wrap;html=1;" vertex="1" parent="uZZuBNZjG8sVTzccnMU_-36">
          <mxGeometry y="90" width="140" height="30" as="geometry" />
        </mxCell>
        <mxCell id="uZZuBNZjG8sVTzccnMU_-40" value="Earliest" style="text;strokeColor=none;fillColor=none;align=left;verticalAlign=middle;spacingLeft=4;spacingRight=4;overflow=hidden;points=[[0,0.5],[1,0.5]];portConstraint=eastwest;rotatable=0;whiteSpace=wrap;html=1;" vertex="1" parent="uZZuBNZjG8sVTzccnMU_-36">
          <mxGeometry y="120" width="140" height="30" as="geometry" />
        </mxCell>
        <mxCell id="uZZuBNZjG8sVTzccnMU_-42" value="" style="endArrow=classic;html=1;rounded=0;exitX=0.25;exitY=0;exitDx=0;exitDy=0;" edge="1" parent="1" source="uZZuBNZjG8sVTzccnMU_-33" target="uZZuBNZjG8sVTzccnMU_-24">
          <mxGeometry width="50" height="50" relative="1" as="geometry">
            <mxPoint x="490" y="88.68" as="sourcePoint" />
            <mxPoint x="540" y="38.68000000000001" as="targetPoint" />
          </mxGeometry>
        </mxCell>
        <mxCell id="uZZuBNZjG8sVTzccnMU_-43" value="" style="endArrow=classic;html=1;rounded=0;exitX=0.5;exitY=0;exitDx=0;exitDy=0;" edge="1" parent="1" source="uZZuBNZjG8sVTzccnMU_-33" target="uZZuBNZjG8sVTzccnMU_-25">
          <mxGeometry width="50" height="50" relative="1" as="geometry">
            <mxPoint x="550" y="140" as="sourcePoint" />
            <mxPoint x="600" y="90" as="targetPoint" />
          </mxGeometry>
        </mxCell>
        <mxCell id="uZZuBNZjG8sVTzccnMU_-44" value="" style="endArrow=classic;html=1;rounded=0;exitX=0.75;exitY=0;exitDx=0;exitDy=0;" edge="1" parent="1" source="uZZuBNZjG8sVTzccnMU_-33" target="uZZuBNZjG8sVTzccnMU_-29">
          <mxGeometry width="50" height="50" relative="1" as="geometry">
            <mxPoint x="540" y="220" as="sourcePoint" />
            <mxPoint x="590" y="170" as="targetPoint" />
          </mxGeometry>
        </mxCell>
      </root>
    </mxGraphModel>
  </diagram>
</mxfile>
